<svg width="138" height="172" viewBox="0 0 138 172" fill="none" xmlns="http://www.w3.org/2000/svg">
<path d="M32.1396 144.67C25.5196 144.67 20.1296 139.29 20.1296 132.68V130.96L2.0696 155.13C-3.0004 161.91 1.8496 171.55 10.3196 171.55H32.5396H70.5396C73.7896 171.55 76.8496 170.02 78.7896 167.42L95.7896 144.67H32.1396Z" fill="white"/>
<path d="M97.0596 88.63L80.1496 111.25C77.8896 114.27 74.2996 116.07 70.5296 116.07H31.2496L23.5596 126.35V132.67C23.5596 137.39 27.4096 141.23 32.1396 141.23H98.3396L117.36 115.79L97.0596 88.63Z" fill="white"/>
<path d="M135.2 79.62L119.49 58.61L99.1996 85.77L119.5 112.93L135.21 91.92C137.93 88.27 137.93 83.27 135.2 79.62Z" fill="white"/>
<path d="M33.8096 112.65H70.5196C73.2096 112.65 75.7796 111.36 77.3896 109.21L94.9196 85.77L77.3996 62.34C75.7896 60.19 73.2196 58.9 70.5296 58.9H33.8096L49.2996 79.63C52.0296 83.28 52.0296 88.28 49.2996 91.92L33.8096 112.65Z" fill="white"/>
<path d="M98.3396 30.3H32.1396C27.4096 30.3 23.5596 34.14 23.5596 38.86V45.17L31.2496 55.46H70.5296C74.2996 55.46 77.8996 57.26 80.1496 60.28L97.0596 82.9L117.36 55.74L98.3396 30.3Z" fill="white"/>
<path d="M20.1296 40.59V38.87C20.1296 32.26 25.5196 26.88 32.1396 26.88H95.7796L78.7796 4.12997C76.8396 1.52997 73.7796 0 70.5296 0H32.5296H10.3096C1.83956 0 -3.00044 9.64998 2.05956 16.42L20.1296 40.59Z" fill="white"/>
</svg>
