<svg width="687" height="172" viewBox="0 0 687 172" fill="none" xmlns="http://www.w3.org/2000/svg">
<path d="M665.74 132.58V86.39H675.38V98.51H684.38V106.96H675.38V130.19C675.38 133.22 676.85 135.42 679.6 135.42C681.44 135.42 683.18 134.69 683.92 133.86L686.22 141.12C684.48 142.77 681.63 143.97 677.13 143.97C669.68 143.97 665.74 139.93 665.74 132.58Z" fill="white"/>
<path d="M624.45 142.87H613.71L629.97 120.09L614.63 98.51H625.47L642 120.09L624.45 142.87ZM646.32 114L657.33 98.51H646.49L640.76 106.75L646.32 114ZM646.33 126.14L640.8 133.32L647.5 142.87H658.34L646.33 126.14Z" fill="white"/>
<path d="M566.67 120.64C566.67 107.78 576.04 97.41 589.17 97.41C602.49 97.41 611.03 107.6 611.03 121.56V123.86H576.78C577.51 130.56 582.56 136.08 590.92 136.08C595.24 136.08 600.38 134.33 603.5 131.21L607.91 137.55C603.5 141.77 596.98 143.98 589.91 143.98C576.59 143.97 566.67 134.7 566.67 120.64ZM589.17 105.31C580.9 105.31 577.14 111.65 576.68 117.06H601.66C601.48 111.83 597.9 105.31 589.17 105.31Z" fill="white"/>
<path d="M556.47 81.61V142.86H546.09L503.39 84.56V81.6H514.41L545.73 124.12V81.6H556.47V81.61ZM503.38 98.88V142.86H514.13V113.57L503.38 98.88Z" fill="white"/>
<path d="M443.83 136.99L446.68 133.41C449.53 136.99 454.76 139.93 461.01 139.93C468.45 139.93 472.86 136.07 472.86 130.93C472.86 118.81 444.85 125.6 444.85 109.71C444.85 102.92 450.63 97.41 460.65 97.41C468.27 97.41 473.32 100.35 476.54 103.93L473.88 107.33C471.31 103.84 466.53 101.45 460.65 101.45C453.76 101.45 449.54 104.94 449.54 109.53C449.54 120.64 477.55 113.85 477.55 130.93C477.55 138.09 472.04 143.97 460.93 143.97C453.75 143.97 448.24 141.86 443.83 136.99Z" fill="white"/>
<path d="M401.31 135.71V159.77H396.53V98.51H401.31V105.49C404.43 100.99 410.13 97.41 416.74 97.41C428.59 97.41 436.58 106.41 436.58 120.64C436.58 134.78 428.59 143.97 416.74 143.97C410.5 143.97 404.89 140.76 401.31 135.71ZM431.44 120.64C431.44 109.89 425.84 101.72 415.92 101.72C409.77 101.72 403.89 105.39 401.32 109.62V131.57C403.89 135.79 409.77 139.65 415.92 139.65C425.83 139.65 431.44 131.39 431.44 120.64Z" fill="white"/>
<path d="M379.14 142.87V136.35C375.47 140.39 369.59 143.97 363.16 143.97C354.07 143.97 349.2 139.75 349.2 129.74V98.52H353.98V128.64C353.98 137.27 358.3 139.66 364.72 139.66C370.41 139.66 376.2 136.26 379.14 132.32V98.52H383.92V142.88H379.14V142.87Z" fill="white"/>
<path d="M322.73 134.33V86.39H327.6V98.51H336.6V102.73H327.6V133.59C327.6 137.17 329.07 139.65 332.19 139.65C334.3 139.65 336.14 138.64 337.15 137.54L338.99 141.21C337.25 142.86 335.13 143.97 331.46 143.97C325.58 143.97 322.73 140.39 322.73 134.33Z" fill="white"/>
<path d="M292.87 142.87V98.51H297.65V106.13C301.42 101.17 306.47 97.59 312.62 97.59V102.82C311.79 102.64 311.15 102.64 310.23 102.64C305.73 102.64 299.67 106.68 297.65 110.54V142.87H292.87Z" fill="white"/>
<path d="M275.48 142.87V137.64C271.53 141.96 266.57 143.98 260.42 143.98C252.8 143.98 244.9 138.75 244.9 129.19C244.9 119.55 252.71 114.5 260.42 114.5C266.57 114.5 271.62 116.52 275.48 120.84V111.84C275.48 105.23 270.15 101.65 263.54 101.65C258.03 101.65 253.71 103.58 249.67 108.17L247.01 104.87C251.6 99.91 256.75 97.43 264.09 97.43C273.09 97.43 280.25 101.75 280.25 111.67V142.89H275.48V142.87ZM275.48 134.14V124.4C272.36 120.36 267.4 118.25 262.07 118.25C254.72 118.25 249.95 122.93 249.95 129.27C249.95 135.52 254.73 140.2 262.07 140.2C267.4 140.21 272.36 138.18 275.48 134.14Z" fill="white"/>
<path d="M223.03 134.33V86.39H227.9V98.51H236.9V102.73H227.9V133.59C227.9 137.17 229.37 139.65 232.49 139.65C234.6 139.65 236.44 138.64 237.45 137.54L239.29 141.21C237.55 142.86 235.43 143.97 231.76 143.97C225.87 143.97 223.03 140.39 223.03 134.33Z" fill="white"/>
<path d="M167.61 134.24L171.01 130.29C174.96 134.88 181.39 139.2 190.11 139.2C202.69 139.2 206.27 132.22 206.27 126.99C206.27 108.99 169.54 118.36 169.54 96.96C169.54 86.95 178.54 80.61 189.65 80.61C198.83 80.61 205.63 83.82 210.41 89.24L206.92 93.1C202.51 87.77 196.27 85.38 189.38 85.38C181.21 85.38 175.05 90.06 175.05 96.68C175.05 112.38 211.79 103.75 211.79 126.62C211.79 134.52 206.56 143.98 190.02 143.98C179.92 143.97 172.29 139.93 167.61 134.24Z" fill="white"/>
<path d="M249.6 48.08V28.67H253.55V47.98C253.55 53.78 256.69 57.45 262.54 57.45C268.39 57.45 271.53 53.79 271.53 47.98V28.67H275.48V48.03C275.48 55.93 271.15 60.97 262.54 60.97C253.93 60.97 249.6 55.88 249.6 48.08Z" fill="white"/>
<path d="M213.15 55.93L215.48 52.93C217.57 55.26 221 57.45 225.47 57.45C231.13 57.45 232.94 54.41 232.94 51.98C232.94 43.8 214.15 48.32 214.15 37C214.15 31.77 218.81 28.2 225.04 28.2C229.89 28.2 233.65 29.82 236.31 32.62L233.93 35.52C231.55 32.9 228.22 31.72 224.75 31.72C220.95 31.72 218.23 33.76 218.23 36.76C218.23 43.9 237.02 39.8 237.02 51.65C237.02 56.26 233.88 60.97 225.32 60.97C219.81 60.97 215.76 58.88 213.15 55.93Z" fill="white"/>
<path d="M196.77 60.4L178.26 35.09V60.4H174.32V28.67H178.36L196.62 53.45V28.67H200.57V60.4H196.77Z" fill="white"/>
<path d="M32.1396 144.67C25.5196 144.67 20.1296 139.29 20.1296 132.68V130.96L2.0696 155.13C-3.0004 161.91 1.8496 171.55 10.3196 171.55H32.5396H70.5396C73.7896 171.55 76.8496 170.02 78.7896 167.42L95.7896 144.67H32.1396Z" fill="white"/>
<path d="M97.0596 88.63L80.1496 111.25C77.8896 114.27 74.2996 116.07 70.5296 116.07H31.2496L23.5596 126.35V132.67C23.5596 137.39 27.4096 141.23 32.1396 141.23H98.3396L117.36 115.79L97.0596 88.63Z" fill="white"/>
<path d="M135.2 79.62L119.49 58.61L99.1996 85.77L119.5 112.93L135.21 91.92C137.93 88.27 137.93 83.27 135.2 79.62Z" fill="white"/>
<path d="M33.8096 112.65H70.5196C73.2096 112.65 75.7796 111.36 77.3896 109.21L94.9196 85.77L77.3996 62.34C75.7896 60.19 73.2196 58.9 70.5296 58.9H33.8096L49.2996 79.63C52.0296 83.28 52.0296 88.28 49.2996 91.92L33.8096 112.65Z" fill="white"/>
<path d="M98.3396 30.3H32.1396C27.4096 30.3 23.5596 34.14 23.5596 38.86V45.17L31.2496 55.46H70.5296C74.2996 55.46 77.8996 57.26 80.1496 60.28L97.0596 82.9L117.36 55.74L98.3396 30.3Z" fill="white"/>
<path d="M20.1296 40.59V38.87C20.1296 32.26 25.5196 26.88 32.1396 26.88H95.7796L78.7796 4.12997C76.8396 1.52997 73.7796 0 70.5296 0H32.5296H10.3096C1.83956 0 -3.00044 9.64998 2.05956 16.42L20.1296 40.59Z" fill="white"/>
</svg>
