<svg width="520" height="132" viewBox="0 0 520 132" fill="none" xmlns="http://www.w3.org/2000/svg">
<path d="M498.74 104.58V58.39H508.38V70.51H517.38V78.96H508.38V102.19C508.38 105.22 509.85 107.42 512.6 107.42C514.44 107.42 516.18 106.69 516.92 105.86L519.22 113.12C517.48 114.77 514.63 115.97 510.13 115.97C502.68 115.97 498.74 111.93 498.74 104.58Z" fill="white"/>
<path d="M457.45 114.87H446.71L462.97 92.09L447.63 70.51H458.47L475 92.09L457.45 114.87ZM479.32 86L490.33 70.51H479.49L473.76 78.75L479.32 86ZM479.33 98.14L473.8 105.32L480.5 114.87H491.34L479.33 98.14Z" fill="white"/>
<path d="M399.67 92.64C399.67 79.78 409.04 69.41 422.17 69.41C435.49 69.41 444.03 79.6 444.03 93.56V95.86H409.78C410.51 102.56 415.56 108.08 423.92 108.08C428.24 108.08 433.38 106.33 436.5 103.21L440.91 109.55C436.5 113.77 429.98 115.98 422.91 115.98C409.59 115.97 399.67 106.7 399.67 92.64ZM422.17 77.31C413.9 77.31 410.14 83.65 409.68 89.06H434.66C434.48 83.83 430.9 77.31 422.17 77.31Z" fill="white"/>
<path d="M389.47 53.61V114.86H379.09L336.39 56.56V53.6H347.41L378.73 96.12V53.6H389.47V53.61ZM336.38 70.88V114.86H347.13V85.57L336.38 70.88Z" fill="white"/>
<path d="M276.83 108.99L279.68 105.41C282.53 108.99 287.76 111.93 294.01 111.93C301.45 111.93 305.86 108.07 305.86 102.93C305.86 90.81 277.85 97.6 277.85 81.71C277.85 74.92 283.63 69.41 293.65 69.41C301.27 69.41 306.32 72.35 309.54 75.93L306.88 79.33C304.31 75.84 299.53 73.45 293.65 73.45C286.76 73.45 282.54 76.94 282.54 81.53C282.54 92.64 310.55 85.85 310.55 102.93C310.55 110.09 305.04 115.97 293.93 115.97C286.75 115.97 281.24 113.86 276.83 108.99Z" fill="white"/>
<path d="M234.31 107.71V131.77H229.53V70.51H234.31V77.49C237.43 72.99 243.13 69.41 249.74 69.41C261.59 69.41 269.58 78.41 269.58 92.64C269.58 106.78 261.59 115.97 249.74 115.97C243.5 115.97 237.89 112.76 234.31 107.71ZM264.44 92.64C264.44 81.89 258.84 73.72 248.92 73.72C242.77 73.72 236.89 77.39 234.32 81.62V103.57C236.89 107.79 242.77 111.65 248.92 111.65C258.83 111.65 264.44 103.39 264.44 92.64Z" fill="white"/>
<path d="M212.14 114.87V108.35C208.47 112.39 202.59 115.97 196.16 115.97C187.07 115.97 182.2 111.75 182.2 101.74V70.52H186.98V100.64C186.98 109.27 191.3 111.66 197.72 111.66C203.41 111.66 209.2 108.26 212.14 104.32V70.52H216.92V114.88H212.14V114.87Z" fill="white"/>
<path d="M155.73 106.33V58.39H160.6V70.51H169.6V74.73H160.6V105.59C160.6 109.17 162.07 111.65 165.19 111.65C167.3 111.65 169.14 110.64 170.15 109.54L171.99 113.21C170.25 114.86 168.13 115.97 164.46 115.97C158.58 115.97 155.73 112.39 155.73 106.33Z" fill="white"/>
<path d="M125.87 114.87V70.51H130.65V78.13C134.42 73.17 139.47 69.59 145.62 69.59V74.82C144.79 74.64 144.15 74.64 143.23 74.64C138.73 74.64 132.67 78.68 130.65 82.54V114.87H125.87Z" fill="white"/>
<path d="M108.48 114.87V109.64C104.53 113.96 99.5696 115.98 93.4196 115.98C85.7996 115.98 77.8996 110.75 77.8996 101.19C77.8996 91.55 85.7096 86.5 93.4196 86.5C99.5696 86.5 104.62 88.52 108.48 92.84V83.84C108.48 77.23 103.15 73.65 96.5396 73.65C91.0296 73.65 86.7096 75.58 82.6696 80.17L80.0096 76.87C84.5996 71.91 89.7496 69.43 97.0896 69.43C106.09 69.43 113.25 73.75 113.25 83.67V114.89H108.48V114.87ZM108.48 106.14V96.4C105.36 92.36 100.4 90.25 95.0696 90.25C87.7196 90.25 82.9496 94.93 82.9496 101.27C82.9496 107.52 87.7296 112.2 95.0696 112.2C100.4 112.21 105.36 110.18 108.48 106.14Z" fill="white"/>
<path d="M56.0296 106.33V58.39H60.8996V70.51H69.8996V74.73H60.8996V105.59C60.8996 109.17 62.3696 111.65 65.4896 111.65C67.5996 111.65 69.4396 110.64 70.4496 109.54L72.2896 113.21C70.5496 114.86 68.4296 115.97 64.7596 115.97C58.8696 115.97 56.0296 112.39 56.0296 106.33Z" fill="white"/>
<path d="M0.609558 106.24L4.00955 102.29C7.95955 106.88 14.3896 111.2 23.1096 111.2C35.6896 111.2 39.2696 104.22 39.2696 98.99C39.2696 80.99 2.53955 90.36 2.53955 68.96C2.53955 58.95 11.5396 52.61 22.6496 52.61C31.8296 52.61 38.6295 55.82 43.4095 61.24L39.9196 65.1C35.5096 59.77 29.2695 57.38 22.3795 57.38C14.2095 57.38 8.04956 62.06 8.04956 68.68C8.04956 84.38 44.7896 75.75 44.7896 98.62C44.7896 106.52 39.5596 115.98 23.0196 115.98C12.9196 115.97 5.28956 111.93 0.609558 106.24Z" fill="white"/>
<path d="M82.5995 20.08V0.669983H86.5496V19.98C86.5496 25.78 89.6896 29.45 95.5396 29.45C101.39 29.45 104.53 25.79 104.53 19.98V0.669983H108.48V20.03C108.48 27.93 104.15 32.97 95.5396 32.97C86.9296 32.97 82.5995 27.88 82.5995 20.08Z" fill="white"/>
<path d="M46.1496 27.93L48.4796 24.93C50.5696 27.26 53.9996 29.45 58.4696 29.45C64.1296 29.45 65.9396 26.41 65.9396 23.98C65.9396 15.8 47.1496 20.32 47.1496 9C47.1496 3.77 51.8096 0.199982 58.0396 0.199982C62.8896 0.199982 66.6496 1.82 69.3096 4.62L66.9296 7.51999C64.5496 4.89999 61.2196 3.72 57.7496 3.72C53.9496 3.72 51.2296 5.75998 51.2296 8.75998C51.2296 15.9 70.0196 11.8 70.0196 23.65C70.0196 28.26 66.8796 32.97 58.3196 32.97C52.8096 32.97 48.7596 30.88 46.1496 27.93Z" fill="white"/>
<path d="M29.7696 32.4L11.2596 7.09V32.4H7.31958V0.669983H11.3596L29.6196 25.45V0.669983H33.5696V32.4H29.7696Z" fill="white"/>
</svg>
